<svg width="24" height="24" viewBox="0 0 24 24" fill="none" xmlns="http://www.w3.org/2000/svg">
    <path fill-rule="evenodd" clip-rule="evenodd"
        d="M18 13.5C18 10.1863 15.3137 7.5 12 7.5C8.68629 7.5 6 10.1863 6 13.5V19C6 19.8284 5.32843 20.5 4.5 20.5H19.5C18.6716 20.5 18 19.8284 18 19V13.5Z"
        stroke="#165874" stroke-linecap="round" stroke-linejoin="round" />
    <path d="M13.4149 22.5C13.2033 23.0997 12.6364 23.5008 12.0004 23.5008C11.3644 23.5008 10.7976 23.0997 10.5859 22.5"
        stroke="#165874" stroke-linecap="round" stroke-linejoin="round" />
    <path d="M12 5.50098V7.50098" stroke="#165874" stroke-linecap="round" stroke-linejoin="round" />
    <path d="M8.5 4C6.01472 4 4 6.01472 4 8.5" stroke="#165874" stroke-linecap="round" stroke-linejoin="round" />
    <path d="M0.5 8.5C0.5 4.08172 4.08172 0.5 8.5 0.5" stroke="#165874" stroke-linecap="round"
        stroke-linejoin="round" />
    <path d="M15.5 4C16.6935 4 17.8381 4.47411 18.682 5.31802C19.5259 6.16193 20 7.30653 20 8.5" stroke="#165874"
        stroke-linecap="round" stroke-linejoin="round" />
    <path d="M23.5 8.5C23.5 4.08172 19.9183 0.5 15.5 0.5" stroke="#165874" stroke-linecap="round"
        stroke-linejoin="round" />
</svg>