<svg width="125" height="111" viewBox="0 0 125 111" fill="none" xmlns="http://www.w3.org/2000/svg">
<path d="M123 37.7412V97.9637C123 104.095 118.08 109 111.93 109H12.9833C5.87667 109 0 103.141 0 96.0562V16.35C0 7.3575 7.38 0 16.4 0H91.9767C99.4933 0 105.233 6.13125 105.233 13.625V21.8H107.693C116.167 21.8 123 29.2937 123 37.7412ZM10.1133 16.35C10.1133 19.3475 12.5733 21.8 15.58 21.8H94.3V13.3525C94.3 11.99 93.2067 10.9 91.84 10.9H15.58C12.5733 10.9 10.1133 13.3525 10.1133 16.35ZM112.067 37.7412C112.067 35.425 110.153 32.7 107.693 32.7H13.12C11.89 32.7 10.9333 34.335 10.9333 35.5612V96.0562C10.9333 97.1462 11.89 98.1 12.9833 98.1H111.93C112.067 98.1 112.067 97.9637 112.067 97.9637V37.7412Z" fill="url(#paint0_linear_3_14)"/>
<path d="M175.278 94.9276L159 37.7813H172.139L181.556 77.4879H182.029L192.418 37.7813H203.668L214.03 77.5716H214.53L223.947 37.7813H237.086L220.808 94.9276H209.085L198.251 57.5648H197.807L187.001 94.9276H175.278Z" fill="url(#paint1_linear_3_14)"/>
<path d="M258.163 95.7647C253.774 95.7647 249.996 94.8718 246.83 93.086C243.681 91.2815 241.255 88.733 239.552 85.4404C237.848 82.1292 236.996 78.2134 236.996 73.6931C236.996 69.2843 237.848 65.415 239.552 62.0852C241.255 58.7554 243.654 56.1604 246.746 54.3001C249.858 52.4399 253.506 51.5098 257.691 51.5098C260.506 51.5098 263.127 51.9656 265.553 52.8771C267.997 53.77 270.127 55.1187 271.942 56.9231C273.775 58.7275 275.201 60.997 276.22 63.7315C277.238 66.4475 277.747 69.6285 277.747 73.2745V76.5392H241.718V69.1727H266.608C266.608 67.4613 266.238 65.9452 265.497 64.6244C264.756 63.3037 263.728 62.2712 262.414 61.5271C261.117 60.7645 259.608 60.3831 257.886 60.3831C256.089 60.3831 254.497 60.8017 253.108 61.6388C251.737 62.4573 250.663 63.5641 249.885 64.9593C249.107 66.3358 248.709 67.8705 248.691 69.5633V76.5671C248.691 78.6878 249.08 80.5201 249.857 82.0641C250.654 83.6081 251.774 84.7986 253.219 85.6357C254.663 86.4728 256.376 86.8914 258.358 86.8914C259.673 86.8914 260.876 86.7054 261.969 86.3333C263.062 85.9613 263.997 85.4032 264.775 84.6591C265.553 83.915 266.145 83.0035 266.553 81.9246L277.497 82.6501C276.942 85.2916 275.803 87.5983 274.081 89.5701C272.377 91.5234 270.173 93.0488 267.469 94.1463C264.784 95.2252 261.682 95.7647 258.163 95.7647Z" fill="url(#paint2_linear_3_14)"/>
<path d="M285.692 94.9276V37.7813H297.526V59.267H297.887C298.406 58.1136 299.156 56.9417 300.137 55.7511C301.137 54.542 302.434 53.5375 304.026 52.7376C305.637 51.9191 307.637 51.5098 310.026 51.5098C313.138 51.5098 316.008 52.3283 318.638 53.9653C321.268 55.5837 323.369 58.0299 324.944 61.3039C326.518 64.5593 327.305 68.6425 327.305 73.5535C327.305 78.3343 326.536 82.371 324.999 85.6636C323.481 88.9376 321.406 91.4211 318.777 93.1139C316.165 94.7881 313.239 95.6252 309.999 95.6252C307.702 95.6252 305.748 95.2438 304.137 94.4811C302.545 93.7184 301.239 92.7604 300.22 91.6071C299.202 90.4351 298.424 89.2539 297.887 88.0633H297.359V94.9276H285.692ZM297.276 73.4977C297.276 76.0463 297.628 78.2692 298.332 80.1667C299.035 82.0641 300.054 83.543 301.387 84.6033C302.721 85.645 304.341 86.1659 306.248 86.1659C308.174 86.1659 309.804 85.6357 311.138 84.5754C312.471 83.4965 313.48 82.0083 314.165 80.1109C314.869 78.1948 315.221 75.9904 315.221 73.4977C315.221 71.0236 314.878 68.8472 314.193 66.9683C313.508 65.0895 312.499 63.6199 311.165 62.5596C309.832 61.4992 308.193 60.9691 306.248 60.9691C304.322 60.9691 302.693 61.4806 301.359 62.5038C300.045 63.5269 299.035 64.9779 298.332 66.8567C297.628 68.7355 297.276 70.9492 297.276 73.4977Z" fill="url(#paint3_linear_3_14)"/>
<path d="M356.118 95.7089C351.97 95.7089 348.275 94.9927 345.035 93.5603C341.812 92.1093 339.266 90.1189 337.395 87.589C335.544 85.0405 334.59 82.1013 334.534 78.7715H346.646C346.72 80.1667 347.174 81.3944 348.007 82.4548C348.859 83.4965 349.988 84.3057 351.396 84.8823C352.803 85.459 354.387 85.7474 356.146 85.7474C357.98 85.7474 359.6 85.4218 361.007 84.7707C362.415 84.1197 363.517 83.2174 364.313 82.0641C365.109 80.9108 365.508 79.5807 365.508 78.0739C365.508 76.5485 365.082 75.1998 364.23 74.0279C363.396 72.8374 362.193 71.9072 360.618 71.2375C359.063 70.5679 357.211 70.233 355.063 70.233H349.757V61.3597H355.063C356.878 61.3597 358.48 61.0435 359.868 60.411C361.276 59.7785 362.369 58.9042 363.146 57.7881C363.924 56.6533 364.313 55.3326 364.313 53.8258C364.313 52.3934 363.97 51.1378 363.285 50.0588C362.619 48.9613 361.674 48.1056 360.452 47.4917C359.248 46.8778 357.841 46.5709 356.229 46.5709C354.6 46.5709 353.109 46.8685 351.757 47.4638C350.405 48.0405 349.322 48.8683 348.507 49.9472C347.692 51.0261 347.257 52.2911 347.201 53.7421H335.673C335.729 50.4495 336.664 47.5475 338.479 45.0362C340.294 42.5249 342.738 40.5623 345.812 39.1486C348.905 37.7162 352.396 37 356.285 37C360.211 37 363.646 37.7162 366.591 39.1486C369.535 40.5809 371.823 42.5156 373.452 44.9525C375.101 47.3708 375.915 50.0867 375.897 53.1003C375.915 56.2999 374.925 58.9693 372.924 61.1086C370.943 63.2479 368.36 64.6058 365.174 65.1825V65.629C369.36 66.1684 372.545 67.6287 374.73 70.0098C376.934 72.3723 378.027 75.3301 378.008 78.8831C378.027 82.1385 377.091 85.0312 375.202 87.5611C373.332 90.091 370.749 92.0814 367.452 93.5324C364.156 94.9834 360.378 95.7089 356.118 95.7089Z" fill="url(#paint4_linear_3_14)"/>
<path d="M404.87 111V52.0679H416.537V59.267H417.065C417.584 58.1136 418.334 56.9417 419.315 55.7511C420.315 54.542 421.611 53.5375 423.204 52.7376C424.815 51.9191 426.815 51.5098 429.204 51.5098C432.316 51.5098 435.186 52.3283 437.816 53.9653C440.445 55.5837 442.547 58.0299 444.122 61.3039C445.696 64.5593 446.483 68.6425 446.483 73.5535C446.483 78.3343 445.714 82.371 444.177 85.6636C442.659 88.9376 440.584 91.4211 437.955 93.1139C435.343 94.7881 432.417 95.6252 429.177 95.6252C426.88 95.6252 424.926 95.2438 423.315 94.4811C421.723 93.7184 420.417 92.7604 419.398 91.6071C418.38 90.4351 417.602 89.2539 417.065 88.0633H416.704V111H404.87ZM416.454 73.4977C416.454 76.0463 416.806 78.2692 417.509 80.1667C418.213 82.0641 419.232 83.543 420.565 84.6033C421.899 85.645 423.519 86.1659 425.426 86.1659C427.352 86.1659 428.982 85.6357 430.316 84.5754C431.649 83.4965 432.658 82.0083 433.343 80.1109C434.047 78.1948 434.399 75.9904 434.399 73.4977C434.399 71.0236 434.056 68.8472 433.371 66.9683C432.686 65.0895 431.677 63.6199 430.343 62.5596C429.01 61.4992 427.371 60.9691 425.426 60.9691C423.5 60.9691 421.871 61.4806 420.537 62.5038C419.223 63.5269 418.213 64.9779 417.509 66.8567C416.806 68.7355 416.454 70.9492 416.454 73.4977Z" fill="url(#paint5_linear_3_14)"/>
<path d="M466.539 95.7368C463.817 95.7368 461.391 95.2624 459.261 94.3137C457.131 93.3464 455.446 91.9233 454.205 90.0445C452.983 88.1471 452.372 85.7846 452.372 82.957C452.372 80.5759 452.807 78.5762 453.677 76.9578C454.548 75.3394 455.733 74.0372 457.233 73.0513C458.733 72.0654 460.437 71.3213 462.344 70.819C464.27 70.3167 466.289 69.9633 468.4 69.7587C470.882 69.4982 472.882 69.2564 474.4 69.0332C475.919 68.7914 477.021 68.4379 477.706 67.9728C478.391 67.5078 478.734 66.8195 478.734 65.908V65.7406C478.734 63.9734 478.178 62.6061 477.067 61.6388C475.975 60.6714 474.419 60.1878 472.4 60.1878C470.271 60.1878 468.576 60.6621 467.317 61.6109C466.058 62.541 465.224 63.7129 464.817 65.1267L453.872 64.2338C454.428 61.6295 455.52 59.3786 457.15 57.4811C458.78 55.5651 460.881 54.0955 463.456 53.0724C466.048 52.0307 469.048 51.5098 472.456 51.5098C474.826 51.5098 477.095 51.7888 479.262 52.3469C481.447 52.905 483.382 53.77 485.068 54.9419C486.771 56.1139 488.114 57.6207 489.095 59.4623C490.077 61.2853 490.568 63.4711 490.568 66.0196V94.9276H479.345V88.9842H479.012C478.327 90.3235 477.41 91.5048 476.262 92.5279C475.113 93.5324 473.734 94.323 472.123 94.8997C470.511 95.4578 468.65 95.7368 466.539 95.7368ZM469.928 87.5332C471.669 87.5332 473.206 87.189 474.539 86.5007C475.873 85.7939 476.919 84.8451 477.678 83.6546C478.438 82.464 478.817 81.1154 478.817 79.6086V75.0603C478.447 75.3022 477.938 75.5254 477.289 75.73C476.66 75.916 475.947 76.0928 475.15 76.2602C474.354 76.409 473.558 76.5485 472.762 76.6787C471.965 76.7903 471.243 76.8927 470.595 76.9857C469.206 77.1903 467.993 77.5158 466.956 77.9623C465.919 78.4087 465.113 79.0133 464.539 79.776C463.965 80.5201 463.678 81.4502 463.678 82.5664C463.678 84.1848 464.261 85.4218 465.428 86.2775C466.613 87.1146 468.113 87.5332 469.928 87.5332Z" fill="url(#paint6_linear_3_14)"/>
<path d="M505.527 111C504.027 111 502.619 110.879 501.304 110.637C500.008 110.414 498.934 110.126 498.082 109.772L500.749 100.899C502.138 101.327 503.388 101.559 504.499 101.597C505.628 101.634 506.601 101.373 507.416 100.815C508.249 100.257 508.925 99.3084 509.443 97.9691L510.138 96.1553L494.832 52.0679H507.277L516.11 83.543H516.555L525.472 52.0679H538L521.416 99.5596C520.62 101.866 519.536 103.875 518.166 105.587C516.814 107.317 515.101 108.647 513.027 109.577C510.953 110.526 508.453 111 505.527 111Z" fill="url(#paint7_linear_3_14)"/>
<defs>
<linearGradient id="paint0_linear_3_14" x1="33" y1="102.5" x2="169.19" y2="-143.205" gradientUnits="userSpaceOnUse">
<stop stop-color="#3DCE25"/>
<stop offset="1" stop-color="#72DE7D"/>
</linearGradient>
<linearGradient id="paint1_linear_3_14" x1="33" y1="102.5" x2="169.19" y2="-143.205" gradientUnits="userSpaceOnUse">
<stop stop-color="#3DCE25"/>
<stop offset="1" stop-color="#72DE7D"/>
</linearGradient>
<linearGradient id="paint2_linear_3_14" x1="33" y1="102.5" x2="169.19" y2="-143.205" gradientUnits="userSpaceOnUse">
<stop stop-color="#3DCE25"/>
<stop offset="1" stop-color="#72DE7D"/>
</linearGradient>
<linearGradient id="paint3_linear_3_14" x1="33" y1="102.5" x2="169.19" y2="-143.205" gradientUnits="userSpaceOnUse">
<stop stop-color="#3DCE25"/>
<stop offset="1" stop-color="#72DE7D"/>
</linearGradient>
<linearGradient id="paint4_linear_3_14" x1="33" y1="102.5" x2="169.19" y2="-143.205" gradientUnits="userSpaceOnUse">
<stop stop-color="#3DCE25"/>
<stop offset="1" stop-color="#72DE7D"/>
</linearGradient>
<linearGradient id="paint5_linear_3_14" x1="33" y1="102.5" x2="169.19" y2="-143.205" gradientUnits="userSpaceOnUse">
<stop stop-color="#3DCE25"/>
<stop offset="1" stop-color="#72DE7D"/>
</linearGradient>
<linearGradient id="paint6_linear_3_14" x1="33" y1="102.5" x2="169.19" y2="-143.205" gradientUnits="userSpaceOnUse">
<stop stop-color="#3DCE25"/>
<stop offset="1" stop-color="#72DE7D"/>
</linearGradient>
<linearGradient id="paint7_linear_3_14" x1="33" y1="102.5" x2="169.19" y2="-143.205" gradientUnits="userSpaceOnUse">
<stop stop-color="#3DCE25"/>
<stop offset="1" stop-color="#72DE7D"/>
</linearGradient>
</defs>
</svg>
