<svg width="400" height="400" viewBox="0 0 400 400" fill="none" xmlns="http://www.w3.org/2000/svg">
    <g clip-path="url(#clip0_94_68)">
        <g filter="url(#filter0_d_94_68)">
            <rect x="29" y="29" width="342" height="342" rx="58" fill="url(#paint0_linear_94_68)" />
            <rect x="29.5" y="29.5" width="341" height="341" rx="57.5" stroke="black"
                style="mix-blend-mode:soft-light" />
        </g>
        <path
            d="M156.45 293C147.336 293 139.725 292.299 133.617 290.896C125.161 289.119 118.96 286.36 115.013 282.62C106.181 264.011 98.6175 243.624 92.3221 221.462C83.5839 190.789 77.4765 159.134 74 126.498C78.2282 120.326 84.0067 115.557 91.3356 112.19C98.6644 108.73 106.839 107 115.859 107C129.389 107 140.007 109.572 147.711 114.715C155.51 119.858 159.409 127.199 159.409 136.738C158.752 143.845 158.141 154.271 157.577 168.018C157.107 181.765 156.872 194.202 156.872 205.33C156.872 208.416 157.154 210.848 157.718 212.624C158.376 214.308 159.691 215.149 161.664 215.149C162.416 215.149 163.356 215.009 164.483 214.728C164.389 213.887 164.342 212.484 164.342 210.52V205.611C164.342 192.051 164.812 176.434 165.752 158.76C166.691 140.992 167.819 127.76 169.134 119.063C177.685 113.827 187.738 111.208 199.295 111.208C210.852 111.208 220.154 112.798 227.201 115.977C235.658 119.905 240.121 125.656 240.591 133.231C240.121 142.395 239.228 151.419 237.913 160.303C236.691 169.187 235.188 179.427 233.403 191.023C231.617 202.618 230.49 210.287 230.02 214.027C230.772 214.401 231.758 214.588 232.98 214.588C234.201 214.588 235.329 214.121 236.362 213.186C237.396 212.25 238.242 210.006 238.899 206.452C241.812 191.49 244.208 175.733 246.087 159.181C247.966 142.535 249.188 128.041 249.752 115.697C258.396 109.899 270.329 107 285.55 107C297.859 107 307.678 110.273 315.007 116.819C322.336 123.271 326 131.968 326 142.909C326 150.204 322.524 169.327 315.57 200.281C312 216.552 308.57 230.486 305.282 242.081C301.993 253.584 299.315 261.673 297.248 266.348C292.926 275.793 286.443 282.62 277.799 286.828C269.248 290.943 258.302 293 244.96 293C239.604 293 233.403 292.205 226.356 290.615C219.403 289.026 214.094 287.249 210.43 285.285C208.55 282.386 206.436 277.991 204.087 272.1C201.738 266.208 200.282 261.766 199.718 258.774C196.054 258.867 194.221 260.831 194.221 264.665C194.221 267.658 195.678 273.175 198.591 281.217C188.725 289.072 174.678 293 156.45 293Z"
            fill="white" />
    </g>
    <defs>
        <filter id="filter0_d_94_68" x="-11" y="-7" width="422" height="422" filterUnits="userSpaceOnUse"
            color-interpolation-filters="sRGB">
            <feFlood flood-opacity="0" result="BackgroundImageFix" />
            <feColorMatrix in="SourceAlpha" type="matrix" values="0 0 0 0 0 0 0 0 0 0 0 0 0 0 0 0 0 0 127 0"
                result="hardAlpha" />
            <feOffset dy="4" />
            <feGaussianBlur stdDeviation="20" />
            <feComposite in2="hardAlpha" operator="out" />
            <feColorMatrix type="matrix" values="0 0 0 0 0 0 0 0 0 0 0 0 0 0 0 0 0 0 0.2 0" />
            <feBlend mode="normal" in2="BackgroundImageFix" result="effect1_dropShadow_94_68" />
            <feBlend mode="normal" in="SourceGraphic" in2="effect1_dropShadow_94_68" result="shape" />
        </filter>
        <linearGradient id="paint0_linear_94_68" x1="371" y1="37.2045" x2="-37.8822" y2="247.334"
            gradientUnits="userSpaceOnUse">
            <stop stop-color="#4F4CE3" />
            <stop offset="0.980103" stop-color="#1082B3" />
        </linearGradient>
        <clipPath id="clip0_94_68">
            <rect width="400" height="400" fill="white" />
        </clipPath>
    </defs>
</svg>