<svg width="218" height="27" viewBox="0 0 218 27" fill="none" xmlns="http://www.w3.org/2000/svg">
    <path
        d="M11.2156 26.3248C9.98004 26.3248 8.94828 26.2293 8.12033 26.0382C6.97393 25.7962 6.13324 25.4204 5.59825 24.9109C4.4009 22.3761 3.37551 19.5993 2.52208 16.5804C1.33747 12.4024 0.509511 8.09069 0.0382133 3.64521C0.611413 2.80452 1.39479 2.15489 2.38833 1.69633C3.38188 1.22503 4.49006 0.989384 5.71289 0.989384C7.54713 0.989384 8.9865 1.33967 10.031 2.04025C11.0882 2.74083 11.6168 3.74074 11.6168 5.04C11.5277 6.00807 11.4449 7.42833 11.3685 9.30078C11.3048 11.1732 11.2729 12.8674 11.2729 14.3832C11.2729 14.8035 11.3111 15.1347 11.3876 15.3767C11.4767 15.606 11.6551 15.7206 11.9226 15.7206C12.0245 15.7206 12.1518 15.7015 12.3047 15.6633C12.292 15.5487 12.2856 15.3576 12.2856 15.0901V14.4214C12.2856 12.5744 12.3493 10.4472 12.4766 8.03974C12.604 5.61956 12.7569 3.81717 12.9352 2.63256C14.0943 1.91924 15.4573 1.56258 17.024 1.56258C18.5908 1.56258 19.8518 1.77913 20.8072 2.21221C21.9536 2.7472 22.5586 3.53057 22.6223 4.56233C22.5586 5.81063 22.4376 7.03983 22.2593 8.24991C22.0937 9.46 21.8899 10.8548 21.6478 12.4343C21.4058 14.0138 21.253 15.0583 21.1893 15.5678C21.2912 15.6187 21.4249 15.6442 21.5905 15.6442C21.7561 15.6442 21.909 15.5805 22.0491 15.4531C22.1892 15.3257 22.3038 15.02 22.393 14.536C22.7879 12.498 23.1127 10.3516 23.3674 8.09706C23.6222 5.82974 23.7878 3.85538 23.8642 2.174C25.0361 1.38426 26.6538 0.989384 28.7173 0.989384C30.386 0.989384 31.7171 1.43521 32.7106 2.32685C33.7041 3.20576 34.2009 4.39037 34.2009 5.88069C34.2009 6.87424 33.7296 9.47911 32.787 13.6953C32.303 15.9117 31.8381 17.8096 31.3922 19.3891C30.9464 20.9558 30.5834 22.0577 30.3032 22.6945C29.7172 23.9811 28.8383 24.9109 27.6664 25.4841C26.5073 26.0446 25.0234 26.3248 23.2146 26.3248C22.4885 26.3248 21.6478 26.2165 20.6925 26C19.7499 25.7835 19.0302 25.5414 18.5335 25.2739C18.2787 24.8791 17.9921 24.2804 17.6737 23.4779C17.3552 22.6754 17.1578 22.0704 17.0814 21.6628C16.5846 21.6755 16.3362 21.943 16.3362 22.4653C16.3362 22.8729 16.5336 23.6244 16.9285 24.7199C15.591 25.7898 13.6867 26.3248 11.2156 26.3248ZM47.5183 12.8164C47.5183 11.5426 47.4609 10.6701 47.3463 10.1988C47.2317 9.71476 47.0215 9.47274 46.7158 9.47274C46.5247 9.47274 46.3528 9.53643 46.1999 9.66381C46.2254 9.89309 46.2636 10.1988 46.3145 10.5809C46.3655 10.9631 46.391 11.7783 46.391 13.0266V14.2685C46.391 15.1347 46.3719 15.7652 46.3336 16.1601C46.2954 16.5549 46.2636 16.8925 46.2381 17.1727C46.2254 17.3256 46.2126 17.4784 46.1999 17.6313C46.3528 17.7587 46.5247 17.8224 46.7158 17.8224C47.0215 17.8224 47.2317 17.5867 47.3463 17.1154C47.4609 16.6314 47.5183 15.7525 47.5183 14.4787V12.8164ZM46.754 26.6114C44.4867 26.6114 42.404 26.1465 40.5061 25.2166C38.6209 24.274 37.0988 22.841 35.9396 20.9176C34.7805 18.9815 34.2009 16.5677 34.2009 13.6762C34.2009 9.48548 35.462 6.21187 37.984 3.85538C40.2259 1.77913 43.111 0.740998 46.6394 0.740998C50.4734 0.740998 53.505 1.93198 55.7341 4.31394C57.976 6.68317 59.0969 9.80392 59.0969 13.6762C59.0969 17.9816 57.8995 21.2679 55.5048 23.5352C53.3267 25.586 50.4097 26.6114 46.754 26.6114ZM73.274 12.8164C73.274 11.5426 73.2167 10.6701 73.1021 10.1988C72.9874 9.71476 72.7773 9.47274 72.4716 9.47274C72.2805 9.47274 72.1085 9.53643 71.9557 9.66381C71.9811 9.89309 72.0194 10.1988 72.0703 10.5809C72.1213 10.9631 72.1467 11.7783 72.1467 13.0266V14.2685C72.1467 15.1347 72.1276 15.7652 72.0894 16.1601C72.0512 16.5549 72.0194 16.8925 71.9939 17.1727C71.9811 17.3256 71.9684 17.4784 71.9557 17.6313C72.1085 17.7587 72.2805 17.8224 72.4716 17.8224C72.7773 17.8224 72.9874 17.5867 73.1021 17.1154C73.2167 16.6314 73.274 15.7525 73.274 14.4787V12.8164ZM72.5098 26.6114C70.2424 26.6114 68.1598 26.1465 66.2619 25.2166C64.3767 24.274 62.8545 22.841 61.6954 20.9176C60.5363 18.9815 59.9567 16.5677 59.9567 13.6762C59.9567 9.48548 61.2177 6.21187 63.7398 3.85538C65.9817 1.77913 68.8668 0.740998 72.3951 0.740998C76.2292 0.740998 79.2608 1.93198 81.4899 4.31394C83.7317 6.68317 84.8527 9.80392 84.8527 13.6762C84.8527 17.9816 83.6553 21.2679 81.2606 23.5352C79.0825 25.586 76.1655 26.6114 72.5098 26.6114ZM96.5842 13.1794C96.6351 13.2176 96.7816 13.2368 97.0236 13.2368C97.2656 13.2368 97.4503 13.1412 97.5777 12.9502C97.7051 12.7591 97.7688 12.447 97.7688 12.0139V10.5618C97.7688 10.1033 97.7114 9.77845 97.5968 9.58738C97.4949 9.38358 97.3166 9.28167 97.0618 9.28167C96.8198 9.28167 96.6542 9.30715 96.5651 9.3581C96.5778 9.42179 96.5842 9.53006 96.5842 9.68291V13.1794ZM97.0618 21.8156V24.739C96.5014 25.2103 95.7116 25.5988 94.6926 25.9045C93.6736 26.1974 92.61 26.3439 91.5018 26.3439C89.9223 26.3439 88.6294 26.0382 87.6231 25.4268C86.4767 24.7262 85.9035 23.7136 85.9035 22.3888V4.23752C85.9035 3.82991 86.1774 3.4223 86.7251 3.01469C87.2856 2.60708 88.0562 2.23769 89.037 1.9065C91.1388 1.19319 93.5398 0.836531 96.2402 0.836531C99.9724 0.836531 102.947 1.76639 105.163 3.6261C107.379 5.48582 108.488 7.98879 108.488 11.135C108.488 14.2685 107.488 16.7078 105.488 18.4529C103.564 20.1088 100.896 20.9367 97.4822 20.9367C96.7052 20.9367 95.8708 20.8476 94.9792 20.6692C94.1003 20.4782 93.508 20.3126 93.2023 20.1725C93.1004 20.2744 93.0494 20.4145 93.0494 20.5928C93.0494 21.2424 94.3869 21.6501 97.0618 21.8156ZM123.047 13.7908H123.372C123.41 13.8036 123.512 13.81 123.677 13.81C123.907 15.2621 124.505 16.4021 125.473 17.23C126.441 18.058 127.55 18.472 128.798 18.472C129.792 18.472 130.288 18.2809 130.288 17.8988C130.288 17.7204 130.256 17.5803 130.193 17.4784C129.874 17.5421 129.46 17.574 128.951 17.574C127.741 17.574 126.722 17.1918 125.894 16.4276C125.066 15.6633 124.652 14.6443 124.652 13.3705C124.652 12.0967 125.047 11.0841 125.836 10.3325C126.639 9.56827 127.683 9.18614 128.97 9.18614H129.314C129.416 9.18614 129.556 9.19888 129.734 9.22435C129.772 9.14793 129.792 9.06513 129.792 8.97597C129.792 8.56836 129.454 8.36455 128.779 8.36455C127.658 8.36455 126.626 8.68937 125.684 9.33899C124.754 9.98862 124.117 10.944 123.773 12.205C121.862 12.205 120.391 11.7528 119.359 10.8484C118.48 10.0842 118.041 9.08424 118.041 7.84867C118.041 5.77242 118.984 4.05919 120.869 2.70898C122.767 1.35878 125.231 0.683678 128.263 0.683678C131.307 0.683678 133.817 1.44158 135.791 2.95737C137.753 4.47317 138.733 6.43478 138.733 8.84222C138.733 10.4344 138.16 11.7464 137.014 12.7782C136.453 12.5107 135.963 12.377 135.543 12.377C135.122 12.377 134.912 12.5489 134.912 12.8928C134.912 13.0457 134.95 13.154 135.027 13.2176C136.033 13.2176 136.95 13.587 137.778 14.3258C138.81 15.243 139.326 16.5486 139.326 18.2427C139.326 20.8157 138.237 22.841 136.059 24.3186C134.059 25.6688 131.511 26.3439 128.416 26.3439C125.333 26.3439 122.792 25.6497 120.792 24.2613C118.805 22.8729 117.812 21.0259 117.812 18.7204C117.812 17.3065 118.264 16.1346 119.168 15.2047C120.085 14.2621 121.378 13.7908 123.047 13.7908ZM160.209 13.1794C160.26 13.2176 160.407 13.2368 160.649 13.2368C160.891 13.2368 161.076 13.1412 161.203 12.9502C161.33 12.7591 161.394 12.447 161.394 12.0139V10.5618C161.394 10.1033 161.337 9.77845 161.222 9.58738C161.12 9.38358 160.942 9.28167 160.687 9.28167C160.445 9.28167 160.279 9.30715 160.19 9.3581C160.203 9.42179 160.209 9.53006 160.209 9.68291V13.1794ZM160.687 21.8156V24.739C160.127 25.2103 159.337 25.5988 158.318 25.9045C157.299 26.1974 156.235 26.3439 155.127 26.3439C153.547 26.3439 152.255 26.0382 151.248 25.4268C150.102 24.7262 149.529 23.7136 149.529 22.3888V4.23752C149.529 3.82991 149.803 3.4223 150.35 3.01469C150.911 2.60708 151.681 2.23769 152.662 1.9065C154.764 1.19319 157.165 0.836531 159.865 0.836531C163.598 0.836531 166.572 1.76639 168.788 3.6261C171.005 5.48582 172.113 7.98879 172.113 11.135C172.113 14.2685 171.113 16.7078 169.113 18.4529C167.19 20.1088 164.521 20.9367 161.107 20.9367C160.33 20.9367 159.496 20.8476 158.604 20.6692C157.725 20.4782 157.133 20.3126 156.827 20.1725C156.726 20.2744 156.675 20.4145 156.675 20.5928C156.675 21.2424 158.012 21.6501 160.687 21.8156ZM183.252 13.4469C183.354 13.5488 183.513 13.5998 183.73 13.5998C183.946 13.5998 184.131 13.5552 184.284 13.466C183.953 11.5299 183.73 10.3835 183.615 10.0268C183.475 9.65744 183.265 9.47274 182.984 9.47274C182.857 9.47274 182.704 9.51095 182.526 9.58738L183.252 13.4469ZM179.469 19.1789C179.341 19.3573 179.278 19.5228 179.278 19.6757C179.278 20.0451 179.622 20.3572 180.31 20.6119C181.01 20.8539 181.857 21.0068 182.851 21.0705C183.016 22.9047 183.195 23.9492 183.386 24.204C183.144 24.6753 182.475 25.1529 181.38 25.637C180.284 26.1083 179.048 26.3439 177.673 26.3439C175.851 26.3439 174.291 25.9554 172.992 25.1784C171.692 24.3887 171.043 23.376 171.043 22.1405C171.043 21.8093 171.075 21.5163 171.138 21.2615L175.208 3.07201C176.227 2.42238 177.444 1.91287 178.857 1.54348C180.271 1.17408 181.743 0.989384 183.271 0.989384C185.462 0.989384 187.334 1.35878 188.888 2.09757C190.659 2.93826 191.735 4.15472 192.117 5.74694L196.474 23.7645C195.149 25.4841 192.99 26.3439 189.997 26.3439C188.545 26.3439 187.315 26.0828 186.309 25.5605C185.303 25.0383 184.717 24.2931 184.551 23.3251L184.131 20.9941C184.895 20.9813 185.634 20.8348 186.347 20.5546C187.061 20.2744 187.417 19.9814 187.417 19.6757C187.417 19.4719 187.334 19.3063 187.169 19.1789C186.685 19.5228 186.092 19.784 185.392 19.9623C184.691 20.1406 184.042 20.2298 183.443 20.2298C181.723 20.2298 180.399 19.8795 179.469 19.1789ZM201.957 20.1916C202.314 20.1916 202.492 19.9941 202.492 19.5993C199.677 17.7268 197.525 15.4276 196.034 12.7018C194.557 9.97588 193.729 6.96977 193.55 3.68342C194.124 2.82999 194.977 2.174 196.111 1.71544C197.257 1.25688 198.435 1.0276 199.645 1.0276C201.238 1.0276 202.607 1.33967 203.753 1.96382C204.467 3.88723 205.053 5.72147 205.511 7.46654C204.887 10.2179 204.575 11.5936 204.575 11.5936C204.524 11.7846 204.499 11.963 204.499 12.1286C204.499 12.5617 204.728 12.7782 205.186 12.7782C205.339 12.2942 205.696 10.8293 206.256 8.38366C206.396 7.75951 206.581 6.89334 206.81 5.78516C207.052 4.66423 207.358 3.34587 207.728 1.83008C208.899 1.26962 210.237 0.989384 211.74 0.989384C213.561 0.989384 215.014 1.43521 216.096 2.32685C217.179 3.20576 217.72 4.47953 217.72 6.14818C217.72 8.59383 217.033 10.9758 215.657 13.2941C214.574 15.1283 213.141 16.8415 211.358 18.4338V24.739C210.301 25.3886 209.352 25.8153 208.511 26.0191C207.67 26.2356 206.785 26.3439 205.855 26.3439C204.097 26.3439 202.715 26.0127 201.709 25.3504C200.703 24.688 200.2 23.7008 200.2 22.3888V19.0261C200.429 19.2553 200.722 19.5101 201.078 19.7903C201.435 20.0578 201.728 20.1916 201.957 20.1916Z"
        fill="white" />
</svg>