<svg width="190" height="27" viewBox="0 0 190 27" fill="none" xmlns="http://www.w3.org/2000/svg">
    <path
        d="M11.2156 26.3248C9.98004 26.3248 8.94828 26.2293 8.12032 26.0382C6.97392 25.7962 6.13323 25.4204 5.59825 24.9109C4.40089 22.3761 3.3755 19.5993 2.52207 16.5804C1.33746 12.4024 0.509506 8.0907 0.038208 3.64522C0.611408 2.80452 1.39478 2.1549 2.38833 1.69634C3.38187 1.22504 4.49006 0.989392 5.71289 0.989392C7.54712 0.989392 8.98649 1.33968 10.031 2.04026C11.0882 2.74084 11.6168 3.74075 11.6168 5.04C11.5277 6.00807 11.4449 7.42834 11.3685 9.30079C11.3048 11.1732 11.2729 12.8674 11.2729 14.3832C11.2729 14.8035 11.3111 15.1347 11.3876 15.3767C11.4767 15.606 11.6551 15.7206 11.9225 15.7206C12.0245 15.7206 12.1518 15.7015 12.3047 15.6633C12.2919 15.5487 12.2856 15.3576 12.2856 15.0901V14.4214C12.2856 12.5744 12.3493 10.4472 12.4766 8.03975C12.604 5.61957 12.7569 3.81718 12.9352 2.63256C14.0943 1.91925 15.4573 1.56259 17.024 1.56259C18.5908 1.56259 19.8518 1.77913 20.8071 2.21222C21.9535 2.7472 22.5586 3.53058 22.6223 4.56234C22.5586 5.81064 22.4376 7.03983 22.2593 8.24992C22.0937 9.46001 21.8899 10.8548 21.6478 12.4343C21.4058 14.0138 21.253 15.0583 21.1893 15.5678C21.2912 15.6187 21.4249 15.6442 21.5905 15.6442C21.7561 15.6442 21.909 15.5805 22.0491 15.4531C22.1892 15.3258 22.3038 15.02 22.393 14.536C22.7879 12.498 23.1127 10.3517 23.3674 8.09707C23.6222 5.82975 23.7878 3.85539 23.8642 2.174C25.0361 1.38426 26.6538 0.989392 28.7173 0.989392C30.386 0.989392 31.717 1.43521 32.7106 2.32686C33.7041 3.20576 34.2009 4.39038 34.2009 5.8807C34.2009 6.87424 33.7296 9.47912 32.787 13.6953C32.303 15.9117 31.8381 17.8096 31.3922 19.3891C30.9464 20.9559 30.5834 22.0577 30.3032 22.6946C29.7172 23.9811 28.8383 24.9109 27.6664 25.4841C26.5073 26.0446 25.0233 26.3248 23.2146 26.3248C22.4885 26.3248 21.6478 26.2165 20.6925 26C19.7499 25.7835 19.0302 25.5414 18.5335 25.274C18.2787 24.8791 17.9921 24.2804 17.6737 23.4779C17.3552 22.6754 17.1578 22.0704 17.0813 21.6628C16.5846 21.6755 16.3362 21.943 16.3362 22.4653C16.3362 22.8729 16.5336 23.6244 16.9285 24.7199C15.591 25.7898 13.6867 26.3248 11.2156 26.3248Z"
        fill="white" />
    <path
        d="M43.6778 1.35242H54.7024C55.0718 1.96383 55.3456 2.63256 55.5239 3.35862C55.7023 4.07193 55.7914 4.71519 55.7914 5.28839C55.7914 6.57491 55.5367 7.54298 55.0272 8.1926C54.5304 8.84223 53.8298 9.16704 52.9254 9.16704H45.2255C44.7542 9.16704 44.5185 9.35174 44.5185 9.72113V9.87399C44.5185 9.95041 44.5312 10.0014 44.5567 10.0268H53.6897C53.919 10.4217 54.1164 10.9185 54.282 11.5172C54.4349 12.1668 54.5113 12.7464 54.5113 13.2559C54.5113 14.7717 54.2311 15.9563 53.6706 16.8097H49.5245C47.5883 16.8097 46.2763 16.8861 45.5885 17.039C44.9006 17.1791 44.4739 17.3001 44.3083 17.402C44.1427 17.5167 44.0599 17.6631 44.0599 17.8415C44.0599 18.0198 44.1491 18.1599 44.3274 18.2618C44.9898 18.0453 45.684 17.8924 46.4101 17.8033C47.3654 17.7141 48.4035 17.6695 49.5245 17.6695H54.8934C55.6704 18.765 56.0589 20.0833 56.0589 21.6246C56.0589 22.4908 55.9507 23.3187 55.7341 24.1084C55.5176 24.8982 55.1928 25.5351 54.7597 26.0191H40.4488C38.8693 26.0191 37.6019 25.637 36.6466 24.8727C35.6021 24.0575 35.0798 22.8601 35.0798 21.2807V3.11023C35.0798 2.49882 35.7804 2.053 37.1816 1.77277C38.5827 1.49253 40.7481 1.35242 43.6778 1.35242Z"
        fill="white" />
    <path
        d="M67.3892 18.5293C67.4401 18.5675 67.5866 18.5866 67.8286 18.5866C68.0706 18.5866 68.2553 18.5038 68.3827 18.3382C68.5101 18.1726 68.5738 17.8797 68.5738 17.4593V17.0963C68.5738 16.625 68.5165 16.2875 68.4018 16.0837C68.2999 15.8798 68.1216 15.7779 67.8668 15.7779C67.6248 15.7779 67.4592 15.8034 67.3701 15.8544C67.3828 15.9181 67.3892 16.0263 67.3892 16.1792V18.5293ZM67.3892 11.3261C67.4401 11.3643 67.5866 11.3834 67.8286 11.3834C68.0706 11.3834 68.2553 11.2879 68.3827 11.0968C68.5101 10.9057 68.5738 10.5937 68.5738 10.1606V10.0459C68.5738 9.58739 68.5165 9.26257 68.4018 9.07151C68.2999 8.8677 68.1216 8.7658 67.8668 8.7658C67.6248 8.7658 67.4592 8.79128 67.3701 8.84223C67.3828 8.90592 67.3892 9.01419 67.3892 9.16704V11.3261ZM57.0143 3.97003C57.0143 3.67706 57.2563 3.34588 57.7403 2.97648C58.7593 2.19948 60.5554 1.59444 63.1284 1.16135C64.4659 0.94481 65.9371 0.836539 67.542 0.836539C71.3634 0.836539 74.2548 1.57533 76.2165 3.05291C77.9361 4.35216 78.7959 6.05903 78.7959 8.1735C78.7959 8.93776 78.6621 9.68929 78.3946 10.4281C78.1271 11.1541 77.745 11.7019 77.2482 12.0713C76.5731 11.7273 75.9235 11.5554 75.2993 11.5554C75.0064 11.5554 74.7835 11.6127 74.6306 11.7273C74.4777 11.842 74.4013 12.0521 74.4013 12.3579C76.2738 12.4343 77.7322 13.1094 78.7767 14.3832C79.7066 15.5423 80.1715 16.9817 80.1715 18.7013C80.1715 21.3635 79.057 23.2996 76.8279 24.5097C74.7389 25.6434 71.5926 26.2102 67.3892 26.2102C64.4468 26.2102 62.2877 26.121 60.912 25.9427C59.5363 25.7516 58.5428 25.3122 57.9314 24.6243C57.32 23.9365 57.0143 22.892 57.0143 21.4908V3.97003Z"
        fill="white" />
    <path
        d="M94.6544 13.7909H94.9792C95.0174 13.8036 95.1193 13.81 95.2849 13.81C95.5142 15.2621 96.1128 16.4021 97.0809 17.2301C98.049 18.058 99.1572 18.472 100.405 18.472C101.399 18.472 101.896 18.2809 101.896 17.8988C101.896 17.7205 101.864 17.5803 101.8 17.4784C101.482 17.5421 101.068 17.574 100.558 17.574C99.3482 17.574 98.3292 17.1918 97.5013 16.4276C96.6733 15.6633 96.2593 14.6443 96.2593 13.3705C96.2593 12.0967 96.6542 11.0841 97.4439 10.3325C98.2464 9.56828 99.2909 9.18615 100.577 9.18615H100.921C101.023 9.18615 101.163 9.19889 101.342 9.22436C101.38 9.14793 101.399 9.06514 101.399 8.97598C101.399 8.56837 101.061 8.36456 100.386 8.36456C99.2654 8.36456 98.2337 8.68938 97.2911 9.339C96.3612 9.98863 95.7243 10.944 95.3804 12.205C93.4698 12.205 91.9985 11.7528 90.9668 10.8484C90.0879 10.0842 89.6484 9.08425 89.6484 7.84868C89.6484 5.77243 90.591 4.05919 92.4762 2.70899C94.3741 1.35879 96.8389 0.683685 99.8705 0.683685C102.915 0.683685 105.424 1.44158 107.399 2.95738C109.36 4.47317 110.341 6.43479 110.341 8.84223C110.341 10.4344 109.768 11.7464 108.621 12.7782C108.061 12.5107 107.57 12.377 107.15 12.377C106.73 12.377 106.52 12.5489 106.52 12.8928C106.52 13.0457 106.558 13.154 106.634 13.2177C107.641 13.2177 108.558 13.587 109.386 14.3258C110.417 15.243 110.933 16.5486 110.933 18.2427C110.933 20.8157 109.844 22.841 107.666 24.3186C105.666 25.6688 103.119 26.3439 100.023 26.3439C96.9408 26.3439 94.3996 25.6497 92.3998 24.2613C90.4127 22.8729 89.4192 21.0259 89.4192 18.7204C89.4192 17.3065 89.8713 16.1346 90.7757 15.2047C91.6928 14.2622 92.9857 13.7909 94.6544 13.7909Z"
        fill="white" />
    <path
        d="M131.817 13.1794C131.868 13.2177 132.014 13.2368 132.256 13.2368C132.498 13.2368 132.683 13.1412 132.81 12.9502C132.938 12.7591 133.001 12.447 133.001 12.0139V10.5618C133.001 10.1033 132.944 9.77846 132.829 9.58739C132.728 9.38358 132.549 9.28168 132.294 9.28168C132.052 9.28168 131.887 9.30716 131.798 9.35811C131.81 9.4218 131.817 9.53007 131.817 9.68292V13.1794ZM132.294 21.8156V24.739C131.734 25.2103 130.944 25.5988 129.925 25.9045C128.906 26.1974 127.843 26.3439 126.734 26.3439C125.155 26.3439 123.862 26.0382 122.856 25.4268C121.709 24.7262 121.136 23.7136 121.136 22.3888V4.23752C121.136 3.82992 121.41 3.42231 121.958 3.0147C122.518 2.60709 123.289 2.23769 124.27 1.90651C126.371 1.1932 128.773 0.836539 131.473 0.836539C135.205 0.836539 138.179 1.7664 140.396 3.62611C142.612 5.48583 143.72 7.9888 143.72 11.135C143.72 14.2685 142.72 16.7078 140.721 18.4529C138.797 20.1088 136.129 20.9367 132.715 20.9367C131.938 20.9367 131.104 20.8476 130.212 20.6693C129.333 20.4782 128.741 20.3126 128.435 20.1725C128.333 20.2744 128.282 20.4145 128.282 20.5928C128.282 21.2424 129.62 21.6501 132.294 21.8156Z"
        fill="white" />
    <path
        d="M154.859 13.4469C154.961 13.5488 155.121 13.5998 155.337 13.5998C155.554 13.5998 155.738 13.5552 155.891 13.466C155.56 11.5299 155.337 10.3835 155.222 10.0268C155.082 9.65745 154.872 9.47275 154.592 9.47275C154.465 9.47275 154.312 9.51096 154.133 9.58739L154.859 13.4469ZM151.076 19.1789C150.949 19.3573 150.885 19.5228 150.885 19.6757C150.885 20.0451 151.229 20.3572 151.917 20.6119C152.618 20.8539 153.465 21.0068 154.458 21.0705C154.624 22.9047 154.802 23.9492 154.993 24.204C154.751 24.6753 154.082 25.1529 152.987 25.637C151.892 26.1083 150.656 26.3439 149.28 26.3439C147.459 26.3439 145.898 25.9554 144.599 25.1784C143.3 24.3887 142.65 23.376 142.65 22.1405C142.65 21.8093 142.682 21.5163 142.746 21.2616L146.816 3.07202C147.835 2.42239 149.051 1.91288 150.465 1.54349C151.879 1.17409 153.35 0.989392 154.879 0.989392C157.069 0.989392 158.942 1.35879 160.496 2.09758C162.266 2.93827 163.343 4.15473 163.725 5.74695L168.081 23.7645C166.757 25.4841 164.597 26.3439 161.604 26.3439C160.152 26.3439 158.923 26.0828 157.917 25.5606C156.91 25.0383 156.324 24.2931 156.159 23.3251L155.738 20.9941C156.503 20.9813 157.241 20.8348 157.955 20.5546C158.668 20.2744 159.025 19.9814 159.025 19.6757C159.025 19.4719 158.942 19.3063 158.776 19.1789C158.292 19.5229 157.7 19.784 156.999 19.9623C156.299 20.1406 155.649 20.2298 155.051 20.2298C153.331 20.2298 152.006 19.8795 151.076 19.1789Z"
        fill="white" />
    <path
        d="M173.565 20.1916C173.922 20.1916 174.1 19.9941 174.1 19.5993C171.285 17.7268 169.132 15.4277 167.642 12.7018C166.164 9.97589 165.336 6.96978 165.158 3.68343C165.731 2.83 166.585 2.17401 167.718 1.71545C168.865 1.25689 170.043 1.02761 171.253 1.02761C172.845 1.02761 174.215 1.33968 175.361 1.96383C176.074 3.88724 176.66 5.72147 177.119 7.46655C176.495 10.2179 176.182 11.5936 176.182 11.5936C176.132 11.7847 176.106 11.963 176.106 12.1286C176.106 12.5617 176.335 12.7782 176.794 12.7782C176.947 12.2942 177.303 10.8293 177.864 8.38367C178.004 7.75952 178.189 6.89335 178.418 5.78516C178.66 4.66424 178.966 3.34588 179.335 1.83008C180.507 1.26962 181.844 0.989392 183.347 0.989392C185.169 0.989392 186.621 1.43521 187.704 2.32686C188.787 3.20576 189.328 4.47954 189.328 6.14819C189.328 8.59384 188.64 10.9758 187.264 13.2941C186.182 15.1283 184.749 16.8415 182.965 18.4338V24.739C181.908 25.3886 180.959 25.8153 180.118 26.0191C179.278 26.2357 178.392 26.3439 177.463 26.3439C175.705 26.3439 174.323 26.0127 173.316 25.3504C172.31 24.688 171.807 23.7008 171.807 22.3888V19.0261C172.036 19.2554 172.329 19.5101 172.686 19.7903C173.043 20.0578 173.336 20.1916 173.565 20.1916Z"
        fill="white" />
</svg>