<svg width="187" height="27" viewBox="0 0 187 27" fill="none" xmlns="http://www.w3.org/2000/svg">
    <path
        d="M11.2156 26.3248C9.98004 26.3248 8.94828 26.2293 8.12033 26.0382C6.97393 25.7962 6.13324 25.4204 5.59825 24.9109C4.4009 22.3761 3.37551 19.5993 2.52208 16.5804C1.33747 12.4024 0.509511 8.09069 0.0382133 3.64521C0.611413 2.80452 1.39479 2.15489 2.38833 1.69633C3.38188 1.22503 4.49006 0.989384 5.71289 0.989384C7.54713 0.989384 8.9865 1.33967 10.031 2.04025C11.0882 2.74083 11.6168 3.74074 11.6168 5.04C11.5277 6.00807 11.4449 7.42833 11.3685 9.30078C11.3048 11.1732 11.2729 12.8674 11.2729 14.3832C11.2729 14.8035 11.3111 15.1347 11.3876 15.3767C11.4767 15.606 11.6551 15.7206 11.9226 15.7206C12.0245 15.7206 12.1518 15.7015 12.3047 15.6633C12.292 15.5487 12.2856 15.3576 12.2856 15.0901V14.4214C12.2856 12.5744 12.3493 10.4472 12.4766 8.03974C12.604 5.61956 12.7569 3.81717 12.9352 2.63256C14.0943 1.91924 15.4573 1.56258 17.024 1.56258C18.5908 1.56258 19.8518 1.77913 20.8072 2.21221C21.9536 2.7472 22.5586 3.53057 22.6223 4.56233C22.5586 5.81063 22.4376 7.03983 22.2593 8.24991C22.0937 9.46 21.8899 10.8548 21.6478 12.4343C21.4058 14.0138 21.253 15.0583 21.1893 15.5678C21.2912 15.6187 21.4249 15.6442 21.5905 15.6442C21.7561 15.6442 21.909 15.5805 22.0491 15.4531C22.1892 15.3257 22.3038 15.02 22.393 14.536C22.7879 12.498 23.1127 10.3516 23.3674 8.09706C23.6222 5.82974 23.7878 3.85538 23.8642 2.174C25.0361 1.38426 26.6538 0.989384 28.7173 0.989384C30.386 0.989384 31.7171 1.43521 32.7106 2.32685C33.7041 3.20576 34.2009 4.39037 34.2009 5.88069C34.2009 6.87424 33.7296 9.47911 32.787 13.6953C32.303 15.9117 31.8381 17.8096 31.3922 19.3891C30.9464 20.9558 30.5834 22.0577 30.3032 22.6945C29.7172 23.9811 28.8383 24.9109 27.6664 25.4841C26.5073 26.0446 25.0234 26.3248 23.2146 26.3248C22.4885 26.3248 21.6478 26.2165 20.6925 26C19.7499 25.7835 19.0302 25.5414 18.5335 25.2739C18.2787 24.8791 17.9921 24.2804 17.6737 23.4779C17.3552 22.6754 17.1578 22.0704 17.0814 21.6628C16.5846 21.6755 16.3362 21.943 16.3362 22.4653C16.3362 22.8729 16.5336 23.6244 16.9285 24.7199C15.591 25.7898 13.6867 26.3248 11.2156 26.3248ZM47.5183 12.8164C47.5183 11.5426 47.4609 10.6701 47.3463 10.1988C47.2317 9.71476 47.0215 9.47274 46.7158 9.47274C46.5247 9.47274 46.3528 9.53643 46.1999 9.66381C46.2254 9.89309 46.2636 10.1988 46.3145 10.5809C46.3655 10.9631 46.391 11.7783 46.391 13.0266V14.2685C46.391 15.1347 46.3719 15.7652 46.3336 16.1601C46.2954 16.5549 46.2636 16.8925 46.2381 17.1727C46.2254 17.3256 46.2126 17.4784 46.1999 17.6313C46.3528 17.7587 46.5247 17.8224 46.7158 17.8224C47.0215 17.8224 47.2317 17.5867 47.3463 17.1154C47.4609 16.6314 47.5183 15.7525 47.5183 14.4787V12.8164ZM46.754 26.6114C44.4867 26.6114 42.404 26.1465 40.5061 25.2166C38.6209 24.274 37.0988 22.841 35.9396 20.9176C34.7805 18.9815 34.2009 16.5677 34.2009 13.6762C34.2009 9.48548 35.462 6.21187 37.984 3.85538C40.2259 1.77913 43.111 0.740998 46.6394 0.740998C50.4734 0.740998 53.505 1.93198 55.7341 4.31394C57.976 6.68317 59.0969 9.80392 59.0969 13.6762C59.0969 17.9816 57.8995 21.2679 55.5048 23.5352C53.3267 25.586 50.4097 26.6114 46.754 26.6114ZM73.274 12.8164C73.274 11.5426 73.2167 10.6701 73.1021 10.1988C72.9874 9.71476 72.7773 9.47274 72.4716 9.47274C72.2805 9.47274 72.1085 9.53643 71.9557 9.66381C71.9811 9.89309 72.0194 10.1988 72.0703 10.5809C72.1213 10.9631 72.1467 11.7783 72.1467 13.0266V14.2685C72.1467 15.1347 72.1276 15.7652 72.0894 16.1601C72.0512 16.5549 72.0194 16.8925 71.9939 17.1727C71.9811 17.3256 71.9684 17.4784 71.9557 17.6313C72.1085 17.7587 72.2805 17.8224 72.4716 17.8224C72.7773 17.8224 72.9874 17.5867 73.1021 17.1154C73.2167 16.6314 73.274 15.7525 73.274 14.4787V12.8164ZM72.5098 26.6114C70.2424 26.6114 68.1598 26.1465 66.2619 25.2166C64.3767 24.274 62.8545 22.841 61.6954 20.9176C60.5363 18.9815 59.9567 16.5677 59.9567 13.6762C59.9567 9.48548 61.2177 6.21187 63.7398 3.85538C65.9817 1.77913 68.8668 0.740998 72.3951 0.740998C76.2292 0.740998 79.2608 1.93198 81.4899 4.31394C83.7317 6.68317 84.8527 9.80392 84.8527 13.6762C84.8527 17.9816 83.6553 21.2679 81.2606 23.5352C79.0825 25.586 76.1655 26.6114 72.5098 26.6114ZM96.5842 13.1794C96.6351 13.2176 96.7816 13.2368 97.0236 13.2368C97.2656 13.2368 97.4503 13.1412 97.5777 12.9502C97.7051 12.7591 97.7688 12.447 97.7688 12.0139V10.5618C97.7688 10.1033 97.7114 9.77845 97.5968 9.58738C97.4949 9.38358 97.3166 9.28167 97.0618 9.28167C96.8198 9.28167 96.6542 9.30715 96.5651 9.3581C96.5778 9.42179 96.5842 9.53006 96.5842 9.68291V13.1794ZM97.0618 21.8156V24.739C96.5014 25.2103 95.7116 25.5988 94.6926 25.9045C93.6736 26.1974 92.61 26.3439 91.5018 26.3439C89.9223 26.3439 88.6294 26.0382 87.6231 25.4268C86.4767 24.7262 85.9035 23.7136 85.9035 22.3888V4.23752C85.9035 3.82991 86.1774 3.4223 86.7251 3.01469C87.2856 2.60708 88.0562 2.23769 89.037 1.9065C91.1388 1.19319 93.5398 0.836531 96.2402 0.836531C99.9724 0.836531 102.947 1.76639 105.163 3.6261C107.379 5.48582 108.488 7.98879 108.488 11.135C108.488 14.2685 107.488 16.7078 105.488 18.4529C103.564 20.1088 100.896 20.9367 97.4822 20.9367C96.7052 20.9367 95.8708 20.8476 94.9792 20.6692C94.1003 20.4782 93.508 20.3126 93.2023 20.1725C93.1004 20.2744 93.0494 20.4145 93.0494 20.5928C93.0494 21.2424 94.3869 21.6501 97.0618 21.8156ZM128.683 13.1794C128.734 13.2176 128.881 13.2368 129.123 13.2368C129.365 13.2368 129.55 13.1412 129.677 12.9502C129.804 12.7591 129.868 12.447 129.868 12.0139V10.5618C129.868 10.1033 129.811 9.77845 129.696 9.58738C129.594 9.38358 129.416 9.28167 129.161 9.28167C128.919 9.28167 128.753 9.30715 128.664 9.3581C128.677 9.42179 128.683 9.53006 128.683 9.68291V13.1794ZM129.161 21.8156V24.739C128.601 25.2103 127.811 25.5988 126.792 25.9045C125.773 26.1974 124.709 26.3439 123.601 26.3439C122.021 26.3439 120.729 26.0382 119.722 25.4268C118.576 24.7262 118.003 23.7136 118.003 22.3888V4.23752C118.003 3.82991 118.277 3.4223 118.824 3.01469C119.385 2.60708 120.155 2.23769 121.136 1.9065C123.238 1.19319 125.639 0.836531 128.339 0.836531C132.072 0.836531 135.046 1.76639 137.262 3.6261C139.479 5.48582 140.587 7.98879 140.587 11.135C140.587 14.2685 139.587 16.7078 137.587 18.4529C135.664 20.1088 132.995 20.9367 129.581 20.9367C128.804 20.9367 127.97 20.8476 127.078 20.6692C126.199 20.4782 125.607 20.3126 125.301 20.1725C125.2 20.2744 125.149 20.4145 125.149 20.5928C125.149 21.2424 126.486 21.6501 129.161 21.8156ZM151.726 13.4469C151.828 13.5488 151.987 13.5998 152.204 13.5998C152.42 13.5998 152.605 13.5552 152.758 13.466C152.427 11.5299 152.204 10.3835 152.089 10.0268C151.949 9.65744 151.739 9.47274 151.458 9.47274C151.331 9.47274 151.178 9.51095 151 9.58738L151.726 13.4469ZM147.943 19.1789C147.815 19.3573 147.752 19.5228 147.752 19.6757C147.752 20.0451 148.096 20.3572 148.784 20.6119C149.484 20.8539 150.331 21.0068 151.325 21.0705C151.49 22.9047 151.669 23.9492 151.86 24.204C151.618 24.6753 150.949 25.1529 149.854 25.637C148.758 26.1083 147.523 26.3439 146.147 26.3439C144.325 26.3439 142.765 25.9554 141.466 25.1784C140.166 24.3887 139.517 23.376 139.517 22.1405C139.517 21.8093 139.549 21.5163 139.612 21.2615L143.682 3.07201C144.701 2.42238 145.918 1.91287 147.331 1.54348C148.745 1.17408 150.217 0.989384 151.745 0.989384C153.936 0.989384 155.808 1.35878 157.362 2.09757C159.133 2.93826 160.209 4.15472 160.591 5.74694L164.948 23.7645C163.623 25.4841 161.464 26.3439 158.471 26.3439C157.019 26.3439 155.789 26.0828 154.783 25.5605C153.777 25.0383 153.191 24.2931 153.025 23.3251L152.605 20.9941C153.369 20.9813 154.108 20.8348 154.821 20.5546C155.535 20.2744 155.891 19.9814 155.891 19.6757C155.891 19.4719 155.808 19.3063 155.643 19.1789C155.159 19.5228 154.566 19.784 153.866 19.9623C153.165 20.1406 152.516 20.2298 151.917 20.2298C150.197 20.2298 148.873 19.8795 147.943 19.1789ZM170.431 20.1916C170.788 20.1916 170.966 19.9941 170.966 19.5993C168.151 17.7268 165.999 15.4276 164.508 12.7018C163.031 9.97588 162.203 6.96977 162.024 3.68342C162.598 2.82999 163.451 2.174 164.585 1.71544C165.731 1.25688 166.909 1.0276 168.119 1.0276C169.712 1.0276 171.081 1.33967 172.227 1.96382C172.941 3.88723 173.527 5.72147 173.985 7.46654C173.361 10.2179 173.049 11.5936 173.049 11.5936C172.998 11.7846 172.973 11.963 172.973 12.1286C172.973 12.5617 173.202 12.7782 173.66 12.7782C173.813 12.2942 174.17 10.8293 174.73 8.38366C174.871 7.75951 175.055 6.89334 175.284 5.78516C175.527 4.66423 175.832 3.34587 176.202 1.83008C177.373 1.26962 178.711 0.989384 180.214 0.989384C182.036 0.989384 183.488 1.43521 184.57 2.32685C185.653 3.20576 186.194 4.47953 186.194 6.14818C186.194 8.59383 185.507 10.9758 184.131 13.2941C183.048 15.1283 181.615 16.8415 179.832 18.4338V24.739C178.775 25.3886 177.826 25.8153 176.985 26.0191C176.144 26.2356 175.259 26.3439 174.329 26.3439C172.571 26.3439 171.189 26.0127 170.183 25.3504C169.177 24.688 168.674 23.7008 168.674 22.3888V19.0261C168.903 19.2553 169.196 19.5101 169.552 19.7903C169.909 20.0578 170.202 20.1916 170.431 20.1916Z"
        fill="white" />
</svg>