<svg width="27" height="28" viewBox="0 0 27 28" fill="none" xmlns="http://www.w3.org/2000/svg">
    <path
        d="M13.6588 10.573L13.6588 10.573L13.6595 10.576C13.7582 10.9814 13.8173 11.7973 13.8173 13.0754V14.7377C13.8173 16.0129 13.7585 16.8369 13.6592 17.2576C13.6119 17.4515 13.5575 17.5395 13.5286 17.5718C13.5281 17.5724 13.5276 17.5729 13.5271 17.5735L13.5351 17.477C13.5352 17.4764 13.5353 17.4757 13.5353 17.4751C13.5606 17.1965 13.5923 16.8606 13.6304 16.4672C13.6711 16.0467 13.69 15.3956 13.69 14.5275V13.2856C13.69 12.0448 13.6654 11.195 13.6092 10.7738C13.5841 10.5855 13.5622 10.4166 13.5435 10.2667C13.5752 10.3145 13.6196 10.4074 13.6588 10.573ZM7.08158 25.9229L7.08521 25.9246C9.05654 26.8905 11.2152 27.3704 13.5531 27.3704C17.3064 27.3704 20.3561 26.3149 22.6467 24.1583L22.6477 24.1573C25.1701 21.769 26.396 18.3339 26.396 13.9352C26.396 9.96105 25.2424 6.70912 22.8972 4.23017C20.557 1.73016 17.3839 0.5 13.4384 0.5C9.80496 0.5 6.7919 1.57249 4.44337 3.74754L4.44337 3.74754L4.44176 3.74904C1.79728 6.2199 0.5 9.63795 0.5 13.9352C0.5 16.8921 1.09275 19.4007 2.30971 21.4335L2.31046 21.4347C3.51516 23.4337 5.10602 24.9351 7.08158 25.9229Z"
        fill="white" stroke="#154C78" />
</svg>