<svg width="26" height="26" viewBox="0 0 26 26" fill="none" xmlns="http://www.w3.org/2000/svg">
    <path
        d="M8.57864 10.732C7.74969 9.072 5.88797 8.19997 4.082 8.6258C2.27603 9.05164 1 10.6635 1 12.519C1 14.3745 2.27603 15.9864 4.082 16.4123C5.88797 16.8381 7.74969 15.9661 8.57864 14.306M8.57864 10.732L16.4296 6.80704M8.57864 10.732C9.14666 11.856 9.14664 13.1831 8.57861 14.307L16.4296 18.233C17.1062 16.8781 18.4901 16.0214 20.0047 16.02C21.793 16.0186 23.365 17.2045 23.8548 18.9245C24.3447 20.6444 23.6332 22.4806 22.1125 23.4215C20.5917 24.3625 18.631 24.1797 17.3105 22.9737C15.9899 21.7678 15.6303 19.8318 16.4297 18.232M16.4296 6.80704C15.6257 5.20332 15.9848 3.26078 17.3088 2.05038C18.6328 0.839979 20.5997 0.656232 22.125 1.60044C23.6504 2.54465 24.363 4.38708 23.8701 6.11194C23.3771 7.83681 21.7985 9.02443 20.0046 9.02004C18.4901 9.01866 17.1062 8.16202 16.4296 6.80704Z"
        stroke="#062D79" stroke-width="2" stroke-linecap="round" stroke-linejoin="round" />
</svg>