<?xml version="1.0" encoding="UTF-8"?><svg id="Layer_2" xmlns="http://www.w3.org/2000/svg" viewBox="0 0 1254.63 413.13"><defs><style>.cls-1{fill:#fff;stroke-width:0px;}</style></defs><g id="Layer_2-2"><path class="cls-1" d="m1234.03,76.7c-13.64-23.54-32.32-42.4-55.52-56.07-23.27-13.69-49.99-20.64-79.41-20.64s-55.62,6.94-78.89,20.64c-23.22,13.67-41.82,32.56-55.29,56.13-5.58,9.77-10.04,20.11-13.39,30.95-3.28-11.41-7.76-22.18-13.47-32.23-13.33-23.46-31.89-42.11-55.17-55.45-23.24-13.3-50.09-20.04-79.8-20.04s-57.08,6.74-80.32,20.05c-23.29,13.33-41.85,31.99-55.17,55.45-5.46,9.61-9.8,19.89-13.03,30.76-3.24-10.87-7.57-21.15-13.03-30.77-13.33-23.46-31.89-42.11-55.17-55.45-23.24-13.3-50.09-20.04-79.8-20.04s-57.08,6.74-80.32,20.05c-17.84,10.22-32.9,23.57-44.96,39.79l1.82-5.46c4.9-13.88,4.85-25.87-.15-35.64-3.9-7.6-12.35-16.66-30.44-16.66-24.88,0-34.79,20.23-38.5,32.35l-44.33,139.01L233.13,30.96c-2-8.38-6.21-15.31-12.52-20.61-6.54-5.49-14.82-8.27-24.61-8.27s-18.67,2.84-25.06,8.43c-5.89,5.15-10.08,11.86-12.45,19.92l-42.07,142.11L72.23,34.33c-3.52-10.97-8.22-18.81-14.37-23.99-6.54-5.49-14.64-8.27-24.09-8.27-8.57,0-23.94,2.25-30.5,17.34C-.77,28.67-1.07,40.13,2.39,53.49l.1.4,77.09,231.27.08.23c2.57,7.22,7.29,13.28,14.01,18,6.71,4.73,14.2,7.13,22.25,7.13s16.06-2.4,22.76-7.12c6.96-4.89,11.58-11.2,13.74-18.76l41.68-147.03,39.71,146.89.04.15c2.17,7.62,6.94,13.97,14.15,18.86,6.85,4.66,14.37,7.02,22.35,7.02,8.47,0,16.11-2.44,22.68-7.25,6.61-4.83,11.05-11,13.22-18.33l44.9-134.7c-.07,2.1-.11,4.2-.11,6.33,0,30.06,6.74,57.17,20.02,80.54,13.32,23.47,31.89,42.13,55.17,55.45,23.22,13.3,50.25,20.05,80.32,20.05s57.09-6.74,80.32-20.04c23.3-13.34,41.79-32.01,54.95-55.51,5.35-9.55,9.6-19.72,12.78-30.45,3.23,10.76,7.55,20.95,12.98,30.51,13.32,23.47,31.89,42.13,55.17,55.45,23.22,13.3,50.25,20.05,80.32,20.05s57.09-6.74,80.32-20.04c23.3-13.34,41.79-32.01,54.95-55.51,2.08-3.72,3.98-7.54,5.74-11.44v149.01c0,10.74,3.82,20.23,11.05,27.47,7.23,7.23,16.73,11.05,27.46,11.05s20.77-3.87,27.88-11.21c7.06-7.32,10.64-16.51,10.64-27.31v-92.87c8.17,6.51,17.07,12.15,26.61,16.88,18.74,9.28,39.51,13.99,61.75,13.99,27.49,0,52.56-7.01,74.51-20.82,21.79-13.71,39.21-32.54,51.76-55.97,12.5-23.33,18.84-49.99,18.84-79.25s-6.93-56.26-20.6-79.86Zm-134.92-5.9c15.56,0,28.99,3.59,41.05,10.97,12.18,7.47,21.6,17.42,28.79,30.41,7.12,12.88,10.72,27.81,10.72,44.38s-3.61,30.98-10.72,43.85c-7.19,13-16.61,22.95-28.79,30.42-12.05,7.38-25.48,10.97-41.05,10.97s-28.61-3.6-40.85-11.01c-12.3-7.44-21.68-17.34-28.68-30.29-6.98-12.88-10.51-27.66-10.51-43.94s3.54-31.58,10.52-44.47c7-12.93,16.38-22.84,28.67-30.28,12.25-7.41,25.61-11.01,40.85-11.01Zm-215.97,85.76c0,16.98-3.46,32.04-10.28,44.77-6.82,12.73-16.01,22.44-28.1,29.7-11.91,7.15-25.93,10.77-41.67,10.77s-29.76-3.62-41.67-10.77c-12.12-7.27-21.41-17.01-28.41-29.79-6.96-12.69-10.48-27.72-10.48-44.67s3.54-32.1,10.51-44.99c7-12.93,16.28-22.74,28.38-30,11.91-7.15,25.92-10.77,41.66-10.77s29.75,3.62,41.66,10.77c12.07,7.24,21.25,17.03,28.07,29.9,6.84,12.92,10.31,28.09,10.31,45.09Zm-296.53,0c0,16.98-3.46,32.04-10.28,44.77-6.82,12.73-16.01,22.44-28.1,29.7-11.91,7.15-25.93,10.77-41.67,10.77s-29.76-3.62-41.67-10.77c-12.12-7.27-21.41-17.01-28.41-29.79-6.96-12.69-10.48-27.72-10.48-44.67s3.54-32.1,10.51-44.99c7-12.93,16.28-22.74,28.38-30,11.91-7.15,25.92-10.77,41.66-10.77s29.75,3.62,41.66,10.77c12.07,7.24,21.25,17.03,28.07,29.9,6.84,12.92,10.31,28.09,10.31,45.09Z"/></g></svg>